<svg width="372" height="850" viewBox="0 0 372 850" fill="none" xmlns="http://www.w3.org/2000/svg">
<path d="M133.518 0C79.3224 203.118 47.6039 317.266 71.5096 504.672C105.058 601.678 107.565 651.657 0 710.513M0 723.105C114.662 670.318 120.166 616.917 88.0119 504.672C68.4457 309.307 94.0436 198.247 143.519 0M154.021 0C105.814 196.974 82.0152 307.422 104.014 504.672C144.499 630.26 130.655 684.652 0 735.214M0 745.869C144.489 691.478 162.733 635.29 121.016 504.672C94.9184 307.372 117.56 196.936 166.522 0M179.024 0C129.805 200.277 107.695 312.041 138.519 504.672C182.12 645.649 158.339 703.341 0 754.587M0 764.273C175.361 715.944 205.335 657.484 153.021 504.672C124.548 309.3 144.367 198.34 190.526 0M204.028 0C155.948 199.652 136.229 311.04 167.523 504.672C225.111 657.546 199.816 721.962 0 772.507M0 780.741C210.499 742.364 245.714 678.068 185.025 504.672C152.886 316.73 171.095 203.804 215.029 0M228.031 0C183.316 198.576 163.651 309.672 200.527 504.672C261.265 686.754 232.801 756.978 0 789.459M0 797.692C234.556 763.772 285.986 702.841 216.529 504.672C172.626 292.454 192.464 186.051 241.032 0M254.034 0C202.947 200.561 189.78 311.759 233.531 504.672C311.244 699.5 260.724 768.508 0 804.957M0 812.707C264.777 777.882 330.171 714.146 249.034 504.672C206.711 315.933 217.428 204.218 265.536 0M280.038 0C231.23 203.188 218.751 314.964 263.536 504.672C342.461 713.182 303.956 793.229 0 820.94M0 827.721C300.68 804.253 372.576 739.254 279.538 504.672C231.473 305.33 243.665 195.24 291.539 0M305.041 0C253.078 197.955 241.401 308.625 295.04 504.672C386.642 737.72 326.954 812.413 0 834.501M0 841.282C343.39 822.987 410.604 747.461 312.042 504.672C253.153 307.601 265.528 197.1 318.543 0M333.045 0C277.071 204.324 269.903 315.613 327.044 504.672C431.123 760.665 355.024 836.526 0 850" stroke="#E34832" stroke-width="3"/>
</svg>
