<svg width="372" height="850" viewBox="0 0 372 850" fill="none" xmlns="http://www.w3.org/2000/svg">
<path d="M238.482 850C289.004 655.993 318.876 546.395 300.49 344.14C274.394 243.13 269.482 194.251 372 137.815M372 125.193C257.338 178.105 251.834 231.631 283.988 344.14C303.554 539.965 277.956 651.286 228.481 850M217.979 850C266.186 652.563 289.985 541.855 267.986 344.14C227.501 218.257 241.345 163.737 372 113.056M372 102.376C227.511 156.895 209.267 213.215 250.984 344.14C277.082 541.904 254.44 652.601 205.478 850M192.976 850C242.195 649.251 264.305 537.225 233.481 344.14C189.88 202.832 213.661 145.004 372 93.6376M372 83.9282C196.639 132.372 166.665 190.969 218.979 344.14C247.452 539.972 227.633 651.194 181.474 850M167.973 850C216.052 649.878 235.771 538.228 204.477 344.14C152.18 180.405 178.023 114.75 372 75.6752M372 67.4223C164.75 102.774 129.447 167.303 186.975 344.14C219.114 532.525 200.905 645.716 156.971 850M143.969 850C188.684 650.957 208.349 539.599 171.473 344.14C110.735 161.63 139.199 91.2407 372 58.6838M372 50.4308C133.58 88.0619 81.711 149.547 155.471 344.14C199.374 556.858 179.536 663.512 130.968 850M117.966 850C169.053 648.967 182.22 537.507 138.469 344.14C60.7557 148.854 111.276 79.6832 372 43.1487M372 35.3812C107.223 70.2872 41.8286 134.174 122.966 344.14C165.289 533.324 154.572 645.302 106.464 850M91.9623 850C140.77 646.334 153.249 534.295 108.464 344.14C27.0741 141.174 65.545 61.0389 372 27.1282M372 20.3316C71.3205 43.8549 -0.575883 109.007 92.4623 344.14C140.527 543.952 128.335 654.301 80.4607 850M66.9589 850C118.922 651.579 130.599 540.649 76.9603 344.14C-14.6419 110.544 45.046 35.6753 372 13.5351M372 6.73846C28.6099 25.0763 -38.6042 100.78 59.958 344.14C118.847 541.675 106.472 652.436 53.4571 850M38.9551 850C94.9294 645.196 102.097 533.645 44.9559 344.14C-59.1227 87.5448 16.9757 11.5053 372 -2" stroke="#E34832" stroke-width="3"/>
</svg>
